# This file uses centimeters as units for non-parametric coordinates.

mtllib a1.mtl
g default
v -0.500000 -0.515360 0.500000
v 0.500000 -0.515360 0.500000
v -0.500000 0.500935 0.500000
v 0.500000 0.500935 0.500000
v -0.500000 0.500935 -0.500000
v 0.500000 0.500935 -0.500000
v -0.500000 -0.515360 -0.500000
v 0.500000 -0.515360 -0.500000
v -0.000096 -0.509062 0.500000
v -0.000096 0.496187 0.500000
v -0.000096 0.496187 -0.500000
v -0.000096 -0.509062 -0.500000
vt 0.375000 0.000000
vt 0.625000 0.000000
vt 0.375000 0.250000
vt 0.625000 0.250000
vt 0.375000 0.500000
vt 0.625000 0.500000
vt 0.375000 0.750000
vt 0.625000 0.750000
vt 0.375000 1.000000
vt 0.625000 1.000000
vt 0.875000 0.000000
vt 0.875000 0.250000
vt 0.125000 0.000000
vt 0.125000 0.250000
vt 0.499976 0.000000
vt 0.499976 1.000000
vt 0.499976 0.250000
vt 0.499976 0.500000
vt 0.499976 0.750000
vn 0.000000 0.000000 1.000000
vn -0.000000 0.000000 1.000000
vn -0.000000 0.000000 1.000000
vn 0.000000 0.000000 1.000000
vn 0.009498 0.999955 0.000000
vn 0.000000 1.000000 0.000000
vn 0.000000 1.000000 0.000000
vn 0.009498 0.999955 0.000000
vn 0.000000 0.000000 -1.000000
vn 0.000000 0.000000 -1.000000
vn 0.000000 0.000000 -1.000000
vn 0.000000 0.000000 -1.000000
vn 0.012597 -0.999921 0.000000
vn 0.000000 -1.000000 0.000000
vn 0.000000 -1.000000 0.000000
vn 0.012597 -0.999921 0.000000
vn 1.000000 0.000000 0.000000
vn 1.000000 0.000000 0.000000
vn 1.000000 0.000000 0.000000
vn 1.000000 0.000000 0.000000
vn -1.000000 0.000000 0.000000
vn -1.000000 0.000000 0.000000
vn -1.000000 0.000000 0.000000
vn -1.000000 0.000000 0.000000
vn -0.000000 0.000000 1.000000
vn -0.000000 0.000000 1.000000
vn -0.009494 0.999955 0.000000
vn -0.009494 0.999955 0.000000
vn -0.000000 0.000000 -1.000000
vn -0.000000 0.000000 -1.000000
vn -0.012592 -0.999921 0.000000
vn -0.012592 -0.999921 0.000000
s 1
g pCube1
usemtl lambert1SG
f 1/1/1 9/15/2 10/17/3 3/3/4
s 2
f 3/3/5 10/17/6 11/18/7 5/5/8
s 3
f 5/5/9 11/18/10 12/19/11 7/7/12
s 4
f 7/7/13 12/19/14 9/16/15 1/9/16
s off
f 2/2/17 8/11/18 6/12/19 4/4/20
f 7/13/21 1/1/22 3/3/23 5/14/24
s 1
f 10/17/3 9/15/2 2/2/25 4/4/26
s 2
f 11/18/7 10/17/6 4/4/27 6/6/28
s 3
f 12/19/11 11/18/10 6/6/29 8/8/30
s 4
f 9/16/15 12/19/14 8/8/31 2/10/32
