# This file uses centimeters as units for non-parametric coordinates.

mtllib d1.mtl
g default
v -0.500000 -0.500000 0.500000
v 0.500000 -0.500000 0.500000
v -0.500000 0.500000 0.500000
v 0.500001 0.500000 0.500000
v -0.500000 0.500000 -0.500000
v 0.500001 0.500000 -0.500000
v -0.500000 -0.500000 -0.500000
v 0.500000 -0.500000 -0.500000
v -0.500000 0.253276 0.500000
v -0.500000 0.253276 -0.500000
v 0.500000 0.253276 -0.500000
v 0.500000 0.253276 0.500000
v -0.500000 -0.251716 0.500000
v -0.500000 -0.251716 -0.500000
v 0.500000 -0.251716 -0.500000
v 0.500000 -0.251716 0.500000
vt 0.375000 0.000000
vt 0.625000 0.000000
vt 0.375000 0.250000
vt 0.625000 0.250000
vt 0.375000 0.500000
vt 0.625000 0.500000
vt 0.375000 0.750000
vt 0.625000 0.750000
vt 0.375000 1.000000
vt 0.625000 1.000000
vt 0.875000 0.000000
vt 0.875000 0.250000
vt 0.125000 0.000000
vt 0.125000 0.250000
vt 0.375000 0.188319
vt 0.125000 0.188319
vt 0.375000 0.561681
vt 0.625000 0.561681
vt 0.875000 0.188319
vt 0.625000 0.188319
vt 0.375000 0.062071
vt 0.125000 0.062071
vt 0.375000 0.687929
vt 0.625000 0.687929
vt 0.875000 0.062071
vt 0.625000 0.062071
vn 0.000000 0.000000 1.000000
vn 0.000000 0.000000 1.000000
vn 0.000000 0.000000 1.000000
vn 0.000000 0.000000 1.000000
vn -0.000000 1.000000 0.000000
vn -0.000000 1.000000 0.000000
vn -0.000000 1.000000 0.000000
vn -0.000000 1.000000 0.000000
vn 0.000000 0.000000 -1.000000
vn 0.000000 0.000000 -1.000000
vn 0.000000 0.000000 -1.000000
vn 0.000000 0.000000 -1.000000
vn 0.000000 -1.000000 0.000000
vn 0.000000 -1.000000 0.000000
vn 0.000000 -1.000000 0.000000
vn 0.000000 -1.000000 0.000000
vn 1.000000 -0.000000 0.000000
vn 1.000000 -0.000000 0.000000
vn 1.000000 0.000000 -0.000000
vn 1.000000 0.000000 -0.000000
vn -1.000000 0.000000 0.000000
vn -1.000000 0.000000 0.000000
vn -1.000000 0.000000 0.000000
vn -1.000000 0.000000 0.000000
vn -1.000000 0.000000 0.000000
vn -1.000000 0.000000 0.000000
vn -1.000000 0.000000 0.000000
vn -1.000000 0.000000 0.000000
vn 0.000000 -0.000000 -1.000000
vn 0.000000 -0.000000 -1.000000
vn 0.000000 -0.000000 -1.000000
vn 0.000000 -0.000000 -1.000000
vn 1.000000 -0.000002 -0.000000
vn 1.000000 -0.000002 -0.000000
vn 1.000000 -0.000007 0.000000
vn 1.000000 -0.000007 0.000000
vn 0.000000 0.000000 1.000000
vn 0.000000 0.000000 1.000000
vn 0.000000 0.000000 1.000000
vn 0.000000 0.000000 1.000000
s 1
g pCube1
usemtl lambert1SG
f 1/1/1 2/2/2 16/26/3 13/21/4
s off
f 3/3/5 4/4/6 6/6/7 5/5/8
s 2
f 14/23/9 15/24/10 8/8/11 7/7/12
s off
f 7/7/13 8/8/14 2/10/15 1/9/16
s 3
f 2/2/17 8/11/18 15/25/19 16/26/20
s 4
f 7/13/21 1/1/22 13/21/23 14/22/24
f 10/16/25 9/15/26 3/3/27 5/14/28
s 2
f 5/5/29 6/6/30 11/18/31 10/17/32
s 3
f 12/20/33 11/19/34 6/12/35 4/4/36
s 1
f 9/15/37 12/20/38 4/4/39 3/3/40
s 4
f 14/22/24 13/21/23 9/15/26 10/16/25
s 2
f 10/17/32 11/18/31 15/24/10 14/23/9
s 3
f 16/26/20 15/25/19 11/19/34 12/20/33
s 1
f 13/21/4 16/26/3 12/20/38 9/15/37
