# This file uses centimeters as units for non-parametric coordinates.

mtllib d2.mtl
g default
v 0.500000 -1.500000 0.500000
v 0.500000 -1.500000 -0.500000
v 0.500000 1.500000 0.500000
v 0.500000 1.500000 -0.500001
v -0.500000 1.500000 0.500000
v -0.500000 1.500000 -0.500001
v -0.500000 -1.500000 0.500000
v -0.500000 -1.500000 -0.500000
v 0.500000 0.759828 0.500000
v -0.500000 0.759828 0.500000
v -0.500000 0.759828 -1.488037
v 0.500000 0.759828 -1.488037
v 0.500000 -0.755149 0.500000
v -0.500000 -0.755149 0.500000
v -0.500000 -0.755149 -1.488037
v 0.500000 -0.755149 -1.488037
vt 0.375000 0.000000
vt 0.625000 0.000000
vt 0.625000 0.062071
vt 0.375000 0.062071
vt 0.375000 0.250000
vt 0.625000 0.250000
vt 0.625000 0.500000
vt 0.375000 0.500000
vt 0.375000 0.687929
vt 0.625000 0.687929
vt 0.625000 0.750000
vt 0.375000 0.750000
vt 0.625000 1.000000
vt 0.375000 1.000000
vt 0.875000 0.000000
vt 0.875000 0.062071
vt 0.125000 0.000000
vt 0.125000 0.062071
vt 0.125000 0.188319
vt 0.375000 0.188319
vt 0.125000 0.250000
vt 0.625000 0.561681
vt 0.375000 0.561681
vt 0.625000 0.188319
vt 0.875000 0.188319
vt 0.875000 0.250000
vn 1.000000 0.000000 0.000000
vn 1.000000 0.000000 0.000000
vn 1.000000 0.000000 0.000000
vn 1.000000 0.000000 0.000000
vn 0.000000 1.000000 0.000000
vn 0.000000 1.000000 0.000000
vn 0.000000 1.000000 0.000000
vn 0.000000 1.000000 0.000000
vn -1.000000 0.000000 0.000000
vn -1.000000 0.000000 0.000000
vn -1.000000 0.000000 0.000000
vn -1.000000 0.000000 0.000000
vn 0.000000 -1.000000 0.000000
vn 0.000000 -1.000000 0.000000
vn 0.000000 -1.000000 0.000000
vn 0.000000 -1.000000 0.000000
vn 0.000000 -0.798515 -0.601975
vn 0.000000 -0.798515 -0.601975
vn 0.000000 -0.400602 -0.916252
vn 0.000000 -0.400602 -0.916252
vn 0.000000 0.000000 1.000000
vn 0.000000 0.000000 1.000000
vn 0.000000 0.000000 1.000000
vn 0.000000 0.000000 1.000000
vn 0.000000 0.000000 1.000000
vn 0.000000 0.000000 1.000000
vn 0.000000 0.000000 1.000000
vn 0.000000 0.000000 1.000000
vn -1.000000 0.000000 -0.000000
vn -1.000000 0.000000 -0.000000
vn -1.000000 0.000000 -0.000000
vn -1.000000 0.000000 -0.000000
vn 0.000000 0.401299 -0.915947
vn 0.000000 0.401299 -0.915947
vn 0.000000 0.800332 -0.599557
vn 0.000000 0.800332 -0.599557
vn 1.000000 0.000000 0.000000
vn 1.000000 0.000000 0.000000
vn 1.000000 0.000000 0.000000
vn 1.000000 0.000000 0.000000
vn 0.000000 0.000000 1.000000
vn 0.000000 0.000000 1.000000
vn 0.000000 0.000000 1.000000
vn 0.000000 0.000000 1.000000
vn -1.000000 0.000000 -0.000000
vn -1.000000 0.000000 -0.000000
vn -1.000000 0.000000 0.000000
vn -1.000000 0.000000 0.000000
vn 0.000000 -0.400602 -0.916252
vn 0.000000 -0.400602 -0.916252
vn 0.000000 0.401299 -0.915947
vn 0.000000 0.401299 -0.915947
vn 1.000000 0.000000 0.000000
vn 1.000000 0.000000 0.000000
vn 1.000000 0.000000 0.000000
vn 1.000000 0.000000 0.000000
s off
g d2:pCube1
usemtl d2:lambert1SG
f 1/1/1 2/2/2 16/3/3 13/4/4
f 3/5/5 4/6/6 6/7/7 5/8/8
f 14/9/9 15/10/10 8/11/11 7/12/12
f 7/12/13 8/11/14 2/13/15 1/14/16
f 2/2/17 8/15/18 15/16/19 16/3/20
f 7/17/21 1/1/22 13/4/23 14/18/24
f 10/19/25 9/20/26 3/5/27 5/21/28
f 5/8/29 6/7/30 11/22/31 10/23/32
f 12/24/33 11/25/34 6/26/35 4/6/36
f 9/20/37 12/24/38 4/6/39 3/5/40
f 14/18/41 13/4/42 9/20/43 10/19/44
f 10/23/45 11/22/46 15/10/47 14/9/48
f 16/3/49 15/16/50 11/25/51 12/24/52
f 13/4/53 16/3/54 12/24/55 9/20/56
