# This file uses centimeters as units for non-parametric coordinates.

mtllib l1.mtl
g default
v -0.500000 -1.500000 0.500000
v 0.500000 -1.500000 0.500000
v -0.500000 1.500000 0.500000
v 0.500000 1.500000 0.500000
v -0.500000 1.500000 -0.500000
v 0.500000 1.500000 -0.500000
v -0.500000 -1.500000 -0.500000
v 0.500000 -1.500000 -0.500000
v -0.500000 -0.592434 0.500000
v -0.500000 -0.592434 -0.500000
v 0.500000 -0.592434 -0.500000
v 0.500000 -0.592434 0.500000
v -0.500000 -0.572591 -0.500000
v -0.500000 -0.572592 0.500000
v 0.500000 -0.572592 0.500000
v 0.500000 -0.572591 -0.500000
vt 0.375000 0.000000
vt 0.625000 0.000000
vt 0.375000 0.250000
vt 0.625000 0.250000
vt 0.375000 0.500000
vt 0.625000 0.500000
vt 0.375000 0.750000
vt 0.625000 0.750000
vt 0.375000 1.000000
vt 0.625000 1.000000
vt 0.875000 0.000000
vt 0.875000 0.250000
vt 0.125000 0.000000
vt 0.125000 0.250000
vt 0.375000 0.075631
vt 0.125000 0.075631
vt 0.375000 0.674369
vt 0.625000 0.674369
vt 0.875000 0.075631
vt 0.625000 0.075631
vt 0.125000 0.077284
vt 0.375000 0.672716
vt 0.375000 0.077284
vt 0.625000 0.077284
vt 0.625000 0.672716
vt 0.875000 0.077284
vn 0.000000 0.000000 1.000000
vn 0.000000 0.000000 1.000000
vn 0.000000 0.000000 1.000000
vn 0.000000 0.000000 1.000000
vn 0.000000 1.000000 0.000000
vn 0.000000 1.000000 0.000000
vn 0.000000 1.000000 0.000000
vn 0.000000 1.000000 0.000000
vn 0.000000 -0.000000 -1.000000
vn 0.000000 -0.000000 -1.000000
vn 0.000000 0.000000 -1.000000
vn 0.000000 0.000000 -1.000000
vn 0.000000 -1.000000 0.000000
vn 0.000000 -1.000000 0.000000
vn 0.000000 -1.000000 0.000000
vn 0.000000 -1.000000 0.000000
vn 1.000000 0.000000 0.000000
vn 1.000000 0.000000 0.000000
vn 1.000000 0.000000 0.000000
vn 1.000000 0.000000 0.000000
vn -1.000000 0.000000 0.000000
vn -1.000000 0.000000 0.000000
vn -1.000000 0.000000 0.000000
vn -1.000000 0.000000 0.000000
vn -1.000000 0.000000 0.000000
vn -1.000000 0.000000 0.000000
vn -1.000000 0.000000 0.000000
vn -1.000000 0.000000 0.000000
vn 0.000000 0.000000 -1.000000
vn 0.000000 0.000000 -1.000000
vn 0.000000 -0.000000 -1.000000
vn 0.000000 -0.000000 -1.000000
vn 1.000000 0.000000 0.000000
vn 1.000000 0.000000 0.000000
vn 1.000000 0.000000 0.000000
vn 1.000000 0.000000 0.000000
vn 0.000000 0.000000 1.000000
vn 0.000000 0.000000 1.000000
vn 0.000000 0.000000 1.000000
vn 0.000000 0.000000 1.000000
s 1
g pCube1
usemtl file1SG
f 1/1/1 2/2/2 12/20/3 9/15/4
s off
f 3/3/5 4/4/6 6/6/7 5/5/8
s 2
f 10/17/9 11/18/10 8/8/11 7/7/12
s off
f 7/7/13 8/8/14 2/10/15 1/9/16
s 3
f 2/2/17 8/11/18 11/19/19 12/20/20
s 4
f 7/13/21 1/1/22 9/15/23 10/16/24
f 13/21/25 14/23/26 3/3/27 5/14/28
s 2
f 5/5/29 6/6/30 16/25/31 13/22/32
s 3
f 15/24/33 16/26/34 6/12/35 4/4/36
s 1
f 14/23/37 15/24/38 4/4/39 3/3/40
s 4
f 10/16/24 9/15/23 14/23/26 13/21/25
s 1
f 9/15/4 12/20/3 15/24/38 14/23/37
s 3
f 12/20/20 11/19/19 16/26/34 15/24/33
s 2
f 13/22/32 16/25/31 11/18/10 10/17/9
